<?xml version="1.0" encoding="utf-8"?>
<!-- Generator: Adobe Illustrator 16.0.0, SVG Export Plug-In . SVG Version: 6.00 Build 0)  -->
<!DOCTYPE svg PUBLIC "-//W3C//DTD SVG 1.1//EN" "http://www.w3.org/Graphics/SVG/1.1/DTD/svg11.dtd">
<svg version="1.1" xmlns="http://www.w3.org/2000/svg" xmlns:xlink="http://www.w3.org/1999/xlink" x="0px" y="0px"
	 width="460px" height="460px" viewBox="0 0 460 460" style="enable-background:new 0 0 460 460;"
	 xml:space="preserve">
<style type="text/css">
<![CDATA[
	.st0{fill-rule:evenodd;clip-rule:evenodd;fill:#EE4036;}
	.st1{fill-rule:evenodd;clip-rule:evenodd;fill:#00A14B;}
]]>
</style>
<g id="arbol">
	<path class="st1" d="M444.624,215.339c-6.189-3.584-13.092-3.193-17.977,0.875c-5.719,4.76-9.601,4.84-15.721,0.092
		c5.084-4.503,10.258-8.813,15.083-13.488c2.1-2.036,3.82-4.652,5.124-7.294c4.415-8.942,4.223-18.398,2.89-28.755
		c-6.046,3.159-9.762,7.808-13.63,12.295c-7.105,8.241-10.33,17.108-4.316,27.217c-2.324,4.465-5.651,7.509-10.146,8.256
		c-7.033,1.169-14.187,1.598-20.967,2.306c0.563-6.126,2.013-12.313,1.47-18.322c-0.743-8.253,0.889-13.523,9.633-16.335
		c7.103-2.285,11.516-8.415,14.696-15.445c-4.422,0.185-8.6,0.646-12.459,2.009c-5.54,1.957-9.628,5.453-10.293,11.989
		c-0.198,1.938-1.808,3.732-2.935,5.907c-2.329-2.634-4.122-4.729-5.988-6.755c-2.965-3.217-3.755-8.853-1.723-12.743
		c2.305-4.409,7.15-6.708,11.954-5.671c12.68,2.736,28.49-6.815,32.527-19.864c-8.994-0.813-17.665,0.256-25.639,4.353
		c-3.061,1.572-6.543,4.117-7.772,7.074c-2.42,5.821-7.337,7.763-12.544,11.164c-0.156-2.933-0.268-5.042-0.366-6.87
		c9.622-8.785,12.9-28.367,6.503-38.781c-4.741,6.588-9.976,12.689-12.117,20.597c-1.437,5.3-2.226,10.837,1.518,15.49
		c3.665,4.557,2.177,9.159,1.908,14.367c-14.845-9.119-21.282-9.646-27.252-2.223c6.734,8.3,14.598,4.148,22.847,1.616
		c1.706,2.019,3.444,4.074,5.184,6.132c-0.244,0.335-0.487,0.672-0.732,1.008c-9.403-2.818-18.224-1.949-26.327,3.405
		c4.839,0.274,5.136,0.292,6.046,2.205c0.945,0,1.927,0,2.928,0c1.509-1.817,2.266-3.21,3.373-3.604
		c9.053-3.221,20.711,2.777,22.9,12.087c3.098,13.165,0.718,28.417-13.267,36.7c-3.774,2.236-7.52,4.764-11.616,6.167
		c-9.239,3.164-18.652,5.836-28.063,8.469c-9.907,2.771-19.894,5.263-30.223,7.975c0.811-2.417,1.51-4.647,2.303-6.846
		c3.209-8.895,7.836-11.444,17.256-9.549c12.908,2.598,25.48-3.568,30.037-14.694c-7.925,0.438-15.872,0.868-23.819,1.319
		c-5.53,0.314-9.823,2.719-13.192,7.204c-1.79,2.383-4.271,4.247-6.44,6.344c-0.423-8.502-1.398-15.918-5.968-22.477
		c-0.319-0.458-0.414-1.125-0.465-1.707c-0.744-8.5-2.763-16.786-2.523-25.497c0.356-12.931-7.814-20.78-22.059-21.979
		c5.984,7.897,6.742,16.778,7.642,25.692c0.451,4.464,3.162,8.089,7.349,9.528c5.24,1.8,6.161,5.476,6.264,11.452
		c-8.664-7.373-18.49-8.97-28.579-10.134c-3.07-7.5-7.17-13.885-15.646-16.742c-0.615,4.964,0.707,9.021,2.79,12.875
		c4.159,7.691,12.577,4.499,18.765,7.563c-2.256,0.712-4.53,1.165-6.822,1.272c-2.99,0.14-6.017-0.228-8.991,0.031
		c-8.706,0.759-14.652,6.046-16.327,14.89c3.485-0.2,6.813-0.258,10.112-0.608c6.132-0.652,10.486-4.461,14.809-8.434
		c5.078-4.665,9.316-5.563,14.874-3.628c-2.447,2.222-4.9,4.441-7.132,6.462c0.868,1.509,1.537,2.674,2.385,4.147
		c0.926,0.358,1.872,0.689,2.849,0.956c-0.09-3.334-0.681-6.348,2.694-7.952c3.261-1.55,6.507-2.906,10.225-0.715
		c4.569,2.692,7.694,6.377,8.952,11.487c2.868,11.66-3.157,28.516-13.076,35.438c-13.242,9.239-26.736,18.115-40.189,27.192
		c-4.181-9.135-8.894-18.623-10.2-29.295c-1.336-10.907-2.918-21.8-3.735-32.748c-1.209-16.224-0.195-32.391,3.248-48.329
		c1.689-7.815,4.113-9.201,12.501-7.756c6.086,8.406,13.471,15.327,23.818,19.037c0.048-3.428-0.281-6.552-1.272-9.449
		c-3.318-9.707-10.688-14.132-20.813-13.042c-2.883,0.311-5.83,0.048-8.972,0.048c3.439-5.177,5.458-6.74,10.205-7.895
		c9.447-2.298,18.405-5.634,25.301-12.844c4.015-4.195,7.017-8.989,6.917-15.513c-6.758-0.466-12.315,1.687-17.749,4.099
		c-9.377,4.163-16.202,10.629-19.361,20.813c-0.902,2.912-3.698,5.236-5.625,7.83c-0.415-0.296-0.83-0.593-1.246-0.889
		c5.394-14.607,11.997-28.485,23.985-39.162c12.533-11.16,26.97-16.056,43.728-13.437c7.468,1.167,9.315,3.294,8.164,10.403
		c1.81,0.127,3.588,0.018,5.442-0.11c0-3.808,0-7.413,0-11.284c4.912-2.069,7.549-1.327,11.503,3.746
		c7.307,9.376,20.419,12.739,31.391,8.054c-5.16-9.139-14.071-14.104-23.867-11.999c-5.132,1.103-8.233-0.76-12.246-4.083
		c2.275-0.788,3.854-1.549,5.517-1.871c5.496-1.065,8.969-4.475,10.531-9.575c2.236-7.297,2.481-14.757,0.769-22.718
		c-9.368,4.487-14.296,11.146-14.458,21.286c-0.142,8.618-4.696,13.686-12.685,13.46c-5.478-0.154-10.916-1.686-16.884-2.687
		c1.613-3.107,2.883-5.549,4.041-7.777c10.609-3.759,14.518-9.296,14.15-20.36c-0.192-5.788-0.746-11.574-1.395-17.332
		c-0.242-2.152-1.223-4.221-1.866-6.328c-0.483,0.002-0.968,0.005-1.45,0.007c-4.404,7.565-9.005,15.025-13.141,22.734
		c-2.553,4.758-2.46,9.964-0.938,15.181c2.208,7.575-0.669,12.521-8.391,14.835c-3.254,0.974-6.538,1.862-9.734,2.998
		c-11.025,3.923-20.933,9.727-28.878,17.907c-4.751-8.651-9.372-16.96-13.881-25.329c-1.608-2.983-3.562-5.981-4.246-9.208
		c-0.753-3.56-1.154-7.682-0.09-11.049c3.127-9.903,17.641-16.892,27.624-14.045c2.228,0.635,3.516,1.719,3.809,3.666
		c0.953,0.06,1.919,0.109,2.886,0.185c1.195-0.903,2.471-1.865,4.416-3.333c-5.726-1.283-10.442-2.34-15.159-3.396
		c4.643-3.392,9.888-5.178,14.201-8.264c4.672-3.341,7.004-8.466,6.18-14.608c-10.515,1.101-16.813,6.441-19.174,16.06
		c-0.961,3.914-3.748,6.511-7.255,7.263c-8.041,1.722-15.01,5.181-20.956,11.026c-2.197-5.037-4.981-9.551-6.141-14.451
		c-2.844-12.004-12.571-20.973-25.058-22.066c-2.957,14.349,6.046,24.59,23.906,26.817c6.007,8.679,1.022,17.988,1.669,27.677
		c-10.178-3.078-19.663-2.445-29.107-0.149c-8.44,2.052-11.885-0.027-14.168-8.647c9.512-12.158,8.537-33.233-2.319-41.998
		c-5.009,8.444-8.218,17.29-8.474,27.125c-0.132,4.991,1.254,9.361,4.413,13.337c3.52,4.429,6.672,9.148,9.987,13.747
		c-9.154,5.733-13.362,4.93-19.198-3.246c-1.16-1.625-2.5-3.119-3.739-4.688c-7.225-9.147-23.732-10.968-34.383-6.028
		c3.128,3.588,6.263,6.875,9.048,10.436c8.089,10.342,18.374,13.311,30.939,10.08c3.616-0.931,7.525-0.725,11.298-1.04
		c0.063,0.397,0.126,0.793,0.189,1.19c-2.924,2.426-5.848,4.853-8.771,7.279c0.216,0.362,0.433,0.725,0.649,1.087
		c1.676,0,3.353,0,5.148,0c0,0.928,0,1.696,0,2.46c1.307,0,2.528,0,3.741,0c0-2.239,0-4.574,0-6.829
		c18.989-16.69,41.561-16.568,54.216,0.978c-3.721-0.332-6.93-0.139-9.844-0.969c-8.437-2.404-16.782,1.336-20.613,9.661
		c8.651,4.611,17.534,2.376,25.313-6.994c2.554,0.686,6.102,0.718,8.394,2.43c5.979,4.468,7.964,18,4.697,24.832
		c-3.703,7.746-6.959,15.704-10.426,23.562c-0.683,1.544-1.441,3.056-2.163,4.582c0.427-13.235,2.949-26.671-9.921-36.231
		c-5.46,8.271-4.762,22.85,2.337,30.557c4.924,5.348,4.962,10.819,3.865,17.102c-1.682,9.638-3.297,19.29-4.72,28.969
		c-0.969,6.604-1.561,13.265-2.376,20.355c-5.168-2.849-9.656-5.437-14.247-7.824c-8-4.158-8.784-5.945-6.025-14.709
		c12.838-6.216,20.422-14.679,21.039-23.873c-6.813,2.213-13.254,4.757-18.75,9.247c-3.896,3.182-6.419,6.955-5.857,12.408
		c0.379,3.685,0.072,7.44,0.072,11.291c-7.334-1.155-7.388-1.209-8.211-6.794c-0.174-1.186-0.319-2.38-0.581-3.547
		c-2.33-10.367-0.514-18.563,9.838-24.281c9.233-5.101,12.457-16.04,8.919-25.163c-12.469,4.507-19.518,14.542-18.802,24.857
		c0.256,3.675-1.716,7.505-2.856,11.985c-3.217-4.509-5.882-7.955-8.227-11.608c-2.349-3.659-4.324-7.555-6.559-11.29
		c-6.517-10.887-16.998-14.749-29.453-16.997c3.458,7.366,6.321,13.897,9.572,20.229c2.155,4.2,5.924,6.365,10.72,6.604
		c2.397,0.119,4.9-0.062,7.153,0.589c2.164,0.624,4.65,1.682,5.989,3.354c6.438,8.041,8.692,17.583,9.65,28.188
		c-1.682-0.544-2.614-0.82-3.532-1.146c-12.263-4.366-24.804-6.268-37.74-3.923c-7.265,1.316-14.442,3.128-21.725,4.31
		c-3.041,0.494-6.448,0.589-9.361-0.259c-19.282-5.616-27.461-20.651-22.581-40.469c4.149-16.849,19.78-20.154,30.737-17.246
		c2.772,0.735,3.547,2.237,3.438,4.479c2.582,0.004,4.966-0.85,6.676-2.561c-2.422-1.756-4.783-3.739-7.49-4.543
		c-15.071-4.475-28.722,0.049-35.947,14.512c-1.236,2.473-2.16,5.101-3.228,7.658c-0.045-14.922,4.503-27.603,17.614-35.77
		c1.722-1.072,4.413-0.94,6.623-0.81c5.336,0.317,10.728,1.78,15.964,1.304c10.94-0.995,20.109-5.755,26.381-15.341
		c-5.952-2.822-16.755-3.842-24.862-2.418c-8.104,1.423-15.17,4.536-20.612,11.153c-2.142,2.605-5.515,4.197-8.328,6.251
		c-0.417-0.395-0.833-0.791-1.25-1.186c1.919-2.567,3.478-5.544,5.824-7.634c10.499-9.352,11.064-31.812,0.4-42.188
		c-6.232,8.419-10.447,17.528-11.124,27.952c-0.239,3.699-0.153,7.963,1.453,11.119c2.71,5.322,1.312,9.538-1.317,13.976
		c-0.915,1.546-1.91,3.047-2.822,4.594c-7.905,13.4-11.515,27.58-7.809,43.091c0.298,1.252,0.433,2.545,0.683,4.054
		c-10.581-3.531-14.269-8.632-13.839-19.081c0.359-8.735-0.32-17.262-5.055-24.872c-1.706-2.74-4.16-5.013-6.458-7.716
		c-7.412,12.013-5.279,27.473,4.029,37.245c3.729,3.914,6.677,8.57,10.311,13.318c-6.318,1.049-9.408-2.42-12.678-5.689
		c-2.802-2.804-5.527-5.808-8.77-8.013c-3.002-2.042-6.544-3.794-10.483-2.027c0.912,9.945,6.07,14.631,15.684,14.261
		c2.849-0.11,5.487-0.249,7.343,3.231c-2.383,0.956-4.54,1.9-6.75,2.691c-3.947,1.41-8.004,2.538-11.873,4.129
		c-5.625,2.315-10.733,5.534-13.988,10.858c-1.456,2.381-3.58,4.919-1.802,8.122c10.901-1.224,21.004-7.496,29.016-17.753
		c1.197-1.534,2.524-3.229,4.185-4.093c8.534-4.443,22.865-1.252,29.025,6.319c4.849,5.958,10.3,11.17,17.262,14.624
		c1.103,0.546,2.116,1.266,3.5,2.104c-5.198,3.386-9.883,6.439-14.567,9.495c-0.669,0.437-1.307,0.925-1.995,1.333
		c-5.603,3.33-12.877,2.218-17.164-2.583c-5.798-6.494-13.226-10.359-21.489-12.42c-3.193-0.796-6.75-0.13-10.604-0.13
		c2.998,4.667,5.394,8.564,7.954,12.348c5.574,8.239,13.005,10.963,22.875,8.915c2.546-0.527,5.293-0.079,7.949-0.079
		c0.15,0.471,0.301,0.941,0.451,1.411c-4.654,2.481-9.175,5.274-14.001,7.353c-4.291,1.847-8.271,1.033-12.235-2.136
		c-3.153-2.521-7.236-4.159-11.16-5.378c-7.536-2.342-14.233,1.522-21.394,3.282c6.516,10.356,21.06,14.789,31.279,10.346
		c4.172-1.814,8.815-2.547,13.245-3.771c0.171,0.435,0.343,0.869,0.514,1.303c-2.915,3.486-5.965,6.868-8.708,10.484
		c-2.963,3.904-6.982,5.218-11.554,5.163c-2.374-0.029-4.739-0.649-7.111-0.984c-7.935-1.123-14.336,1.621-18.021,7.785
		c2.548,3.253,6.182,4.923,9.981,4.104c4.356-0.939,8.721-2.662,12.556-4.93c3.369-1.991,6.512-3.306,11.762-2.773
		c-2.961,3.891-5.126,7.17-7.724,10.06c-5.851,6.508-10.656,13.569-12.123,22.356c-1.378,8.257,0.66,15.586,6.968,22.565
		c2.729-3.362,5.345-5.882,7.117-8.897c5.13-8.74,7.063-18.489,5.493-28.319c-1.218-7.635,0.278-13.662,5.328-19.206
		c1.877-2.061,3.162-4.687,5.129-6.639c5.798-5.755,11.629-11.501,17.817-16.822c2.223-1.91,5.496-2.598,8.288-3.844
		c0.238,0.355,0.477,0.711,0.714,1.066c-0.729,1.713-1.458,3.426-2.196,5.162c1.931,0.889,3.483,1.604,5.037,2.319
		c-0.445,0.549-0.893,1.098-1.339,1.647c1.484,0.322,2.941,0.499,4.352,0.51c0.486-4.69-0.09-9.437,1.899-12.528
		c6.836-10.624,17.79-15.784,30.638-20.541c-1.075,4.038-1.554,6.739-2.509,9.259c-2.852,7.516-2.584,14.381,3.402,20.438
		c6.737-6.741,7.349-12.165,2.554-21.183c-2.846-5.351-0.92-10.155,4.684-10.58c10.189-0.771,20.349-0.437,30.268,2.709
		c0,0.777,0.042,1.357-0.006,1.93c-1.205,14.295,3.907,23.171,16.833,29.316c1.696,0.806,3.288,1.831,5.141,2.874
		c-7.114,4.881-14.695,4.95-20.955,0.671c-2.307-1.576-4.66-3.156-7.18-4.328c-8.817-4.098-17.351-2.937-25.877,1.375
		c7.101,10.442,20.195,14.286,32.73,10.355c4.021-1.261,8.365-1.499,12.56-2.205c0.189,0.594,0.381,1.189,0.57,1.784
		c-3.75,1.785-7.5,3.57-11.807,5.621c2.177,1.263,4.397,2.33,4.1,4.559c1.054,0.631,2.204,0.627,3.368,0.343
		c0-1.631,0-3.163,0-4.381c4.136-2.929,7.946-5.502,11.619-8.262c3.867-2.908,8.084-4.509,13.321-4.56
		c-8.662,8.902-3.228,28.03,13.016,34.621c0.868-12.105-3.028-21.588-13.863-27.245c0.964-4.625,3.566-6.17,7.503-5.911
		c3.994,0.262,7.164,2.145,8.178,5.952c2.975,11.166,5.905,22.364,8.203,33.681c2.1,10.326,3.5,20.805,4.939,31.253
		c1.423,10.35,1.907,20.756-0.902,30.974c-1.134,4.119-2.876,8.071-4.354,12.133c-5.235-4.135-9.42-8.221-14.311-11.115
		c-6.735-3.986-7.898-10.187-7.988-16.867c-0.046-3.431,1.918-5.958,5.052-8.207c3.417-2.45,6.453-6.056,8.393-9.81
		c4.287-8.293,3.285-17.48,2.801-26.432c-0.084-1.565-1.438-3.061-2.566-5.304c-13.289,12.38-17.694,27.134-16.259,44.421
		c-2.929-2.438-5.442-4.722-7.146-7.5c-5.42-8.834-18.384-14.45-29.313-12.113c1.519,6.216,5.824,9.945,11.28,12.159
		c4.398,1.785,9.16,2.697,13.794,3.866c4.727,1.192,8.74,3.354,10.094,8.34c0.973,3.581,1.263,7.35,1.79,10.603
		c-13.38-3.416-26.48-6.681-39.516-10.177c-1.991-0.534-3.697-2.133-5.257-3.072c-0.583-17.432-12.032-34.01-23.37-33.275
		c1.76,7.799,2.936,15.695,5.49,23.117c1.167,3.39,4.612,6.55,7.809,8.56c5.127,3.221,10.911,5.397,17.118,8.351
		c-4.527,1.646-8.295,2.908-11.98,4.377c-7.868,3.137-13.08,2.313-17.652-4.529c-5.217-7.811-12.107-8.778-20.428-7.435
		c-6.418,1.035-12.938,1.431-19.35,2.104c3.006,4.576,7.696,8.493,13.665,9.514c6.404,1.095,13.082,1.169,19.595,0.833
		c4.738-0.243,8.459,0.596,11.542,4.189c-6.398,6.95-8.32,7.822-16.758,7.854c-1.599,0.005-3.205,0.039-4.795,0.196
		c-12.732,1.258-25.841,12.173-28.754,24.41c3.518-0.44,6.85-0.729,10.136-1.294c11.926-2.049,22.385-5.904,29.521-17.112
		c4.211-6.616,11.888-10.227,19.969-13.514c0,2.288,0,3.958,0,5.634c1.303,0.442,2.541,0.518,3.727,0.352
		c-0.963-4.771,0.901-7.78,4.799-9.354c2.542-1.026,5.365-1.711,8.1-1.854c24.73-1.306,44.143,12.924,49.431,37.166
		c1.76,8.074,1.609,16.686,1.45,25.034c-0.323,16.953-1.245,33.895-1.955,51.728c-1.337,0-2.507,0-3.573,0
		c12.083,2.189,24.656,1.996,36.472-1.243c-3.188-10.329-4.705-24.525-3.934-35.968c0.687-10.193,8.558-17.105,18.677-16.397
		c6.88,0.481,8.99,2.646,9.343,9.581c0.494,9.716,9.1,17.435,19.156,17.177c1.721-11.68-4.945-19.541-12.374-20.906
		c-4.918-0.903-7.004-3.801-9.062-8.427c3.627-1.297,6.858-3.188,10.242-3.528c11.524-1.158,23.671-11.151,26.973-23.367
		c-3.918,0-7.712-0.401-11.394,0.076c-10.854,1.405-17.483,7.117-19.709,16.449c-1.563,6.546-5.451,9.834-12.278,9.686
		c-3.316-0.073-6.611-1.048-9.989-1.626c-0.94,0.674-1.876,1.429-2.894,2.049c-1.108,0.674-2.291,1.222-4.094,2.166
		c0.591-3.278,0.984-5.813,1.509-8.323c4.446-21.234,7.011-42.566,4.188-64.298c-1.144-8.798,7.635-15.04,15.702-11.253
		c3.194,1.5,6.004,3.821,8.66,5.553c0,2.11,0,3.838,0,5.561c1.098,0.356,2.265,0.574,3.481,0.691
		c0.269-1.599,0.541-3.226,0.762-4.534c2.876-0.44,4.998-0.766,7.119-1.092c0.004-0.438,0.009-0.875,0.012-1.312
		c-5.102-2.547-12.074-1.024-15.967-6.776c13.413-1.54,21.285,3.327,25.355,15.474c2.644,7.89,11.807,13.429,20.996,12.436
		c-1.886-8.834-6.855-14.988-15.563-17.19c-4.987-1.263-7.408-4.513-9.616-8.851c3.582,0.28,6.862,1.359,10.218,2.078
		c2.695,0.576,5.528,1.206,8.221,0.96c9.662-0.88,17.288-5.895,23.71-12.825c2.723-2.935,6.39-5.396,6.609-9.632
		c-7.359,0.859-14.604,1.704-21.852,2.551c-1.19,0.14-2.39,0.243-3.571,0.44c-8.272,1.383-15.785,3.802-17.536,13.678
		c-9.478,1.944-17.764-2.799-26.806-2.36c1.826-4.581,4.149-7.02,8.634-8.099c12.679-3.053,20.524-17.385,19.841-26.44
		c-7.333,2.245-13.819,5.894-20.091,10.074c-5.347,3.562-7.484,8.476-7.434,14.751c0.036,4.524-2.701,8.197-6.882,9.34
		c-4.872,1.329-9.837,2.316-15.706,3.67c1.817-4.963,2.773-9.793,5.177-13.743c7.46-12.251,17.303-22.427,29.502-30.049
		c10.222-6.386,21.558-10.376,33.056-13.747c10.293-3.016,20.593-1.915,30.737,1.095c2.433,0.722,4.299,1.994,4.186,5.04
		c-0.201,5.404-5.06,9.828-10.448,10.082c-5.141,0.243-10.431,0.546-15.334,1.947c-10.495,2.997-15.562,11.163-18.874,20.768
		c5.058-1.052,9.485-2.204,13.987-2.856c6.699-0.972,12.553-3.467,17.452-8.207c4.52-4.374,9.139-8.646,14.836-14.022
		c-0.602,2.792-0.745,4.529-1.372,6.067c-0.729,1.784-2.567,3.332-2.723,5.089c-0.399,4.507-0.135,9.073-0.138,13.616
		c9.523-2.306,13.391-11.567,8.376-19.714c-1.575-2.56-2.639-5.437-3.876-8.042c2.428-1.405,3.893-2.252,5.09-2.944
		c8.629,7.348,15.376,15.664,16.653,27.945c1.38,0.13,2.696,0.08,3.977-0.275c-0.375,0.006-0.749,0.014-1.127,0.014
		c0-3.334,0-6.476,0-10.351c3.023-1.369,6.117-2.77,9.348-4.234c0.833,1.771,1.316,2.641,1.667,3.563
		c2.821,7.436,8.326,11.659,16.042,12.755c5.327,0.756,10.766,1.369,16.114,1.137c3.94-0.172,8.34,0.598,11.981-2.139
		c-4.155-3.508-8.348-6.567-11.966-10.198c-8.534-8.563-18.346-11.448-30.058-8.085c-3.267,0.938-6.747,1.134-10.13,1.67
		c-0.477-0.321-0.952-0.643-1.429-0.963c11.469-14.266,9.913-28.028,0.062-42.446c-1.528,4.97-2.615,8.985-3.998,12.896
		c-3.125,8.845-2.727,16.877,5.725,23.794c-2.291,2.515-4.386,4.814-6.902,7.577c-7.783-13.002-16.741-22.972-31.051-27.788
		c2.643-1.126,4.715-1.767,6.542-2.83c7.743-4.506,15.979-8.424,22.932-13.946c5.757-4.575,11.87-7.347,18.749-8.639
		c6.874-1.292,13.688-0.342,19.501,3.845c3.169,2.283,6.764,4.57,7.686,9.146c0.947-0.045,1.91-0.185,2.843-0.271
		c-0.498-0.209-1.088-0.451-1.837-0.715c3.079-1.035,4.692-1.578,6.847-2.303c-3.818-1.955-6.875-3.519-9.933-5.084
		c4.845-0.972,9.373-0.416,13.697-1.125C437.655,221.614,441.566,219.042,444.624,215.339z M189.939,233.799
		c-1.115-11.603-7.507-20.474-16.797-27.852c13.709,0.583,40.598,18.746,46.095,31.713
		C209.255,234.002,199.203,239.865,189.939,233.799z"/>
</g>
<g id="m1">
	<path class="st0" d="M277.642,323.643c-1.576-0.261-2.743-0.509-3.926-0.639c-8.853-0.964-16.288,5.229-15.494,13.949
		c0.455,4.983,2.439,10.077,4.792,14.568c2.451,4.679,7.029,6.89,12.608,6.476c2.578-0.19,5.212-0.271,7.77,0.033
		c5.426,0.644,9.645-1.596,12.237-5.923c2.207-3.68,3.893-7.926,4.708-12.136c2.155-11.133-6.671-18.918-17.524-15.908
		c-0.304,0.085-0.716-0.223-1.819-0.604c0.043-0.256,0.086-0.516,0.13-0.775c-1.217-0.117-2.384-0.335-3.481-0.691
		C277.642,322.539,277.642,323.085,277.642,323.643z"/>
</g>
<g id="m2">
	<path class="st0" d="M377.865,287.348c0.012,0.111,0.031,0.218,0.042,0.33c-2.591-0.364-4.317-0.648-6.056-0.843
		c-7.03-0.78-17.709,4.669-19.919,10.777c-3.882,10.735-2.874,21.201,2.9,31.152c5.016,8.643,13.029,11.129,22.359,11.261
		c6.972,0.099,13.926,0.997,19.477-4.978c6.846-7.372,10.721-15.932,10.922-25.914c0.248-12.407-7.764-21.084-19.89-22.022
		c-1.925-0.149-3.871-0.069-5.859-0.039C380.561,287.428,379.245,287.479,377.865,287.348z"/>
</g>
<g id="m3">
	<path class="st0" d="M421.557,231.953c-13.611-1.273-20.104,5.939-17.345,18.773c1.835,8.548,9.169,15.549,16.599,15.849
		c11.148,0.449,17.236-3.873,20.246-14.408c0.326-1.147,0.554-2.329,0.742-3.507c1.741-10.879-4.245-17.274-15.262-16.432
		c-0.566,0.043-1.166-0.229-2.166-0.647c-0.933,0.086-1.896,0.226-2.843,0.271C421.537,231.886,421.549,231.917,421.557,231.953z"/>
</g>
<g id="m4">
	<path class="st0" d="M316.104,113.705c-0.076,0.462-0.162,0.942-0.262,1.447c-0.98-0.134-1.97-0.254-2.955-0.405
		c-12.436-1.899-21.682,4.121-24.473,16.477c-2.678,11.848,0.153,22.641,7.788,32.026c3.823,4.703,8.885,7.303,15.148,7.284
		c3.31-0.009,6.758-0.263,9.896,0.551c6.242,1.62,11.11-0.666,15.28-4.693c8.151-7.872,12.444-17.733,12.363-29.001
		c-0.114-15.947-12.031-24.654-24.79-22.41c-0.715,0.126-1.471,0.017-2.554,0.017c0-0.475,0-0.935,0-1.403
		C319.692,113.723,317.914,113.833,316.104,113.705z"/>
</g>
<g id="m5">
	<path class="st0" d="M353.288,181.546c-1.708-0.14-3.246-0.411-4.775-0.366c-6.436,0.19-11.893,4.618-11.799,10.455
		c0.068,4.499,1.001,9.136,2.427,13.42c1.378,4.14,4.591,7.063,9.344,7.32c3.184,0.173,6.386,0.138,9.578,0.038
		c4.236-0.133,7.833-1.817,10.287-5.302c3.932-5.58,4.732-11.758,2.828-18.276c-1.209-4.14-4.169-6.211-8.348-6.621
		c-1.921-0.188-3.859-0.198-7.401-0.365c0.215-0.24,0.412-0.473,0.601-0.7c-1.001,0-1.982,0-2.928,0
		C353.16,181.273,353.221,181.405,353.288,181.546z"/>
</g>
<g id="m6">
	<path class="st0" d="M266.684,64.124c-0.888-0.162-1.601-0.314-2.319-0.42c-7.704-1.131-13.31,2.896-14.69,10.543
		c-2.011,11.151,6.009,20.629,17.399,20.563c1.399-0.008,2.802,0.038,4.202,0.012c9.656-0.174,15.142-7.257,14.469-18.671
		c-0.402-6.833-3.525-10.971-9.097-12.236c0.101,0.062,0.204,0.114,0.303,0.18c-0.099-0.066-0.202-0.118-0.303-0.18
		c-1.924-0.437-4.134-0.536-6.631-0.279c-0.2,0.021-0.461-0.55-0.972-1.197c0.188-0.142,0.381-0.288,0.571-0.432
		c-0.967-0.076-1.933-0.125-2.886-0.185C266.831,62.485,266.818,63.246,266.684,64.124z"/>
</g>
<g id="m7">
	<path class="st0" d="M122.882,146.098c-0.022,0.474-0.071,0.97-0.164,1.512c-1.769-0.173-3.318-0.401-4.876-0.464
		c-6.787-0.277-12.246,3.501-13.844,10.005c-1.936,7.871-0.305,15.144,4.995,21.312c5.853,6.811,23.182,7.941,29.854,1.916
		c6.122-5.527,8.155-12.625,6.659-20.674c-1.145-6.147-4.395-10.571-10.619-12.563c-1.393-0.446-2.513-1.708-3.795-2.539
		c-0.517-0.334-1.026-0.696-1.534-1.064C127.848,145.248,125.463,146.102,122.882,146.098z"/>
</g>
<g id="m8">
	<path class="st0" d="M150.469,345.961c0,0.433,0,0.865,0,1.309c-1.442,0.166-2.606,0.296-3.768,0.435
		c-6.409,0.762-10.092,4.456-10.733,10.844c-0.657,6.553,2.651,11.417,6.686,16.088c3.629,4.202,7.829,5.92,13.313,4.486
		c1.281-0.335,2.781-0.093,4.133,0.149c4.203,0.75,7.06-1.132,8.807-4.678c2.874-5.841,4.255-12.089,3.632-18.6
		c-0.651-6.792-5.884-10.836-13.02-10.339c-1.714,0.12-3.413,0.47-5.311,0.741c-0.006-0.029-0.006-0.055-0.012-0.084
		C153.01,346.479,151.772,346.403,150.469,345.961z"/>
</g>
<g id="m9">
	<path class="st0" d="M177.759,106.984c-1.516-0.502-2.629-0.98-3.792-1.239c-7.132-1.586-15.291,1.601-18.371,7.128
		c-6.471,11.612,1.86,31.466,14.914,34.008c5.755,1.122,12.246,0.978,17.918-0.482c13.535-3.485,20.717-18.073,16.379-31.318
		c-1.975-6.027-6.247-9.307-12.395-9.618c-3.493-0.178-7.041,0.726-10.914,1.184c0-0.313,0-0.648,0-0.967c-1.212,0-2.434,0-3.741,0
		C177.759,106.107,177.759,106.533,177.759,106.984z"/>
</g>
<g id="m10">
	<path class="st0" d="M276.238,216.265c-2.505-0.164-3.884-0.365-5.259-0.327c-9.451,0.259-14.887,7.02-12.297,16.09
		c1.287,4.511,3.522,8.928,6.189,12.794c1.325,1.921,4.512,2.737,7.014,3.602c1.421,0.491,3.245-0.267,4.74,0.119
		c10.013,2.588,19.333-6.624,19.493-18.984c0.099-7.73-4.108-12.139-11.383-12.712c-1.546,0.219-2.996,0.158-4.376-0.076
		c-0.563,0.002-1.137,0.005-1.747,0.005c-0.002-0.132-0.006-0.262-0.01-0.394c-0.977-0.266-1.923-0.598-2.849-0.956
		C275.913,215.7,276.064,215.964,276.238,216.265z"/>
</g>
<g id="m11">
	<path class="st0" d="M95.188,236.864c-0.722,0.097-1.462,0.348-2.166,0.267c-13.616-1.565-24.434,6.081-26.123,19.509
		c-1.952,15.535,3.131,28.89,15.215,39.022c2.731,2.29,6.751,4.023,10.264,4.189c6.439,0.305,13.01-0.322,19.393-1.377
		c4.621-0.764,8.835-2.56,12.343-6.575c8.805-10.083,11.497-21.662,10.152-34.49c-1.531-14.614-14.277-23.548-28.806-20.465
		c-1.487,0.315-3.014,0.448-5.739,0.839c0.031-0.239,0.046-0.479,0.071-0.72c-1.411-0.011-2.868-0.188-4.352-0.51
		C95.355,236.657,95.271,236.761,95.188,236.864z"/>
</g>
<g id="m12">
	<path class="st0" d="M176.837,256.591c-0.067,0.506-0.262,1.071-0.62,1.713c-1.346-0.335-2.501-0.656-3.67-0.91
		c-6.422-1.4-12.15,1.333-14.691,7.355c-4.169,9.869-2.007,22.034,8.173,28c6.353,3.723,15.505,4.377,22.821,1.811
		c10.009-3.512,14.125-13.283,12.211-24.046c-1.456-8.188-6.031-12.111-14.415-12.35c-1.59-0.046-3.183-0.019-4.768-0.124
		c-0.541-0.036-1.064-0.375-1.674-0.604c0-0.17,0-0.333,0-0.501C179.041,257.218,177.891,257.222,176.837,256.591z"/>
</g>
</svg>
